<?xml version="1.0" encoding="UTF-8" ?><svg viewBox="261 157 165 122"
    version="1.1" xmlns="http://www.w3.org/2000/svg" >
<g fill="none" stroke-linecap="square" font-style="normal" >
<g font-family="Sans Serif" font-size="12px"><text x="339.5602" y="199.4189" fill="#000000" >C</text></g>
<g font-family="Sans Serif" font-size="12px"><text x="360.0199" y="187.4189" fill="#000000" >H</text></g>
<g font-family="Sans Serif" font-size="12px"><text x="339.2399" y="271.4189" fill="#000000" >H</text></g>
<g font-family="Sans Serif" font-size="12px"><text x="291.5602" y="223.4189" fill="#000000" >C</text></g>
<g font-family="Sans Serif" font-size="12px"><text x="339.5602" y="247.4189" fill="#000000" >C</text></g>
<g font-family="Sans Serif" font-size="12px"><text x="363.2399" y="247.4189" fill="#000000" >H</text></g>
<g font-family="Sans Serif" font-size="12px"><text x="363.5602" y="223.4189" fill="#000000" >C</text></g>
<g font-family="Sans Serif" font-size="12px"><text x="318.4599" y="187.4189" fill="#000000" >H</text></g>
<g font-family="Sans Serif" font-size="12px"><text x="315.2399" y="199.4189" fill="#000000" >H</text></g>
<g font-family="Sans Serif" font-size="12px"><text x="387.2399" y="247.4189" fill="#000000" >H</text></g>
<g font-family="Sans Serif" font-size="12px"><text x="339.2399" y="175.4189" fill="#000000" >H</text></g>
<g font-family="Sans Serif" font-size="12px"><text x="291.2399" y="199.4189" fill="#000000" >H</text></g>
<g font-family="Sans Serif" font-size="12px"><text x="318.4599" y="259.4189" fill="#000000" >H</text></g>
<g font-family="Sans Serif" font-size="12px"><text x="387.2399" y="199.4189" fill="#000000" >H</text></g>
<g font-family="Sans Serif" font-size="12px"><text x="315.5602" y="223.4189" fill="#000000" >C</text></g>
<g font-family="Sans Serif" font-size="12px"><text x="315.2399" y="247.4189" fill="#000000" >H</text></g>
<g font-family="Sans Serif" font-size="12px"><text x="360.0199" y="259.4189" fill="#000000" >H</text></g>
<g font-family="Sans Serif" font-size="12px"><text x="339.5602" y="223.4189" fill="#000000" >C</text></g>
<g font-family="Sans Serif" font-size="12px"><text x="291.2399" y="247.4189" fill="#000000" >H</text></g>
<g font-family="Sans Serif" font-size="12px"><text x="411.2399" y="223.4189" fill="#000000" >H</text></g>
<g font-family="Sans Serif" font-size="12px"><text x="363.2399" y="199.4189" fill="#000000" >H</text></g>
<g font-family="Sans Serif" font-size="12px"><text x="267.2399" y="223.4189" fill="#000000" >H</text></g>
<g font-family="Sans Serif" font-size="12px"><text x="387.5602" y="223.4189" fill="#000000" >C</text></g>
<line x1="313.5602" y1="218.9189" x2="301.9352" y2="218.9189" stroke-width="1" stroke="#000000" />
<line x1="373.9352" y1="218.9189" x2="385.5602" y2="218.9189" stroke-width="1" stroke="#000000" />
<line x1="343.7477" y1="213.4189" x2="343.7477" y2="203.4189" stroke-width="1" stroke="#000000" />
<line x1="349.9352" y1="246.4921" x2="358.0199" y2="251.1608" stroke-width="1" stroke="#000000" />
<line x1="397.9352" y1="218.9189" x2="409.2399" y2="218.9189" stroke-width="1" stroke="#000000" />
<line x1="349.9352" y1="191.3458" x2="358.0199" y2="186.677" stroke-width="1" stroke="#000000" />
<line x1="337.5602" y1="218.9189" x2="325.9352" y2="218.9189" stroke-width="1" stroke="#000000" />
<line x1="343.7477" y1="227.4189" x2="343.7477" y2="237.4189" stroke-width="1" stroke="#000000" />
<line x1="319.7477" y1="227.4189" x2="319.7477" y2="237.4189" stroke-width="1" stroke="#000000" />
<line x1="349.9352" y1="218.9189" x2="361.5602" y2="218.9189" stroke-width="1" stroke="#000000" />
<line x1="319.7477" y1="213.4189" x2="319.7477" y2="203.4189" stroke-width="1" stroke="#000000" />
<line x1="337.5602" y1="191.3458" x2="329.4756" y2="186.677" stroke-width="1" stroke="#000000" />
<line x1="343.7477" y1="189.4189" x2="343.7477" y2="179.4189" stroke-width="1" stroke="#000000" />
<line x1="295.7477" y1="213.4189" x2="295.7477" y2="203.4189" stroke-width="1" stroke="#000000" />
<line x1="391.7477" y1="227.4189" x2="391.7477" y2="237.4189" stroke-width="1" stroke="#000000" />
<line x1="367.7477" y1="227.4189" x2="367.7477" y2="237.4189" stroke-width="1" stroke="#000000" />
<line x1="391.7477" y1="213.4189" x2="391.7477" y2="203.4189" stroke-width="1" stroke="#000000" />
<line x1="367.7477" y1="213.4189" x2="367.7477" y2="203.4189" stroke-width="1" stroke="#000000" />
<line x1="343.7477" y1="251.4189" x2="343.7477" y2="261.4189" stroke-width="1" stroke="#000000" />
<line x1="337.5602" y1="246.4921" x2="329.4756" y2="251.1608" stroke-width="1" stroke="#000000" />
<line x1="295.7477" y1="227.4189" x2="295.7477" y2="237.4189" stroke-width="1" stroke="#000000" />
<line x1="289.5602" y1="218.9189" x2="278.2556" y2="218.9189" stroke-width="1" stroke="#000000" />
</g>
</svg>