<?xml version="1.0" encoding="UTF-8" ?><svg viewBox="221 150 189 75"
    version="1.1" xmlns="http://www.w3.org/2000/svg" >
<g fill="none" stroke-linecap="square" font-style="normal" >
<g font-family="Sans Serif" font-size="12px"><text x="323.6724" y="168.7883" fill="#000000" >H</text></g>
<g font-family="Sans Serif" font-size="12px"><text x="395.6724" y="192.7883" fill="#000000" >H</text></g>
<g font-family="Sans Serif" font-size="12px"><text x="251.6724" y="216.7883" fill="#000000" >H</text></g>
<g font-family="Sans Serif" font-size="12px"><text x="371.9927" y="192.7883" fill="#000000" >C</text></g>
<g font-family="Sans Serif" font-size="12px"><text x="275.9927" y="192.7883" fill="#000000" >C</text></g>
<g font-family="Sans Serif" font-size="12px"><text x="371.6724" y="168.7883" fill="#000000" >H</text></g>
<g font-family="Sans Serif" font-size="12px"><text x="299.9927" y="192.7883" fill="#000000" >C</text></g>
<g font-family="Sans Serif" font-size="12px"><text x="275.6724" y="168.7883" fill="#000000" >H</text></g>
<g font-family="Sans Serif" font-size="12px"><text x="323.9927" y="192.7883" fill="#000000" >C</text></g>
<g font-family="Sans Serif" font-size="12px"><text x="251.9927" y="192.7883" fill="#000000" >C</text></g>
<g font-family="Sans Serif" font-size="12px"><text x="299.6724" y="168.7883" fill="#000000" >H</text></g>
<g font-family="Sans Serif" font-size="12px"><text x="371.6724" y="216.7883" fill="#000000" >H</text></g>
<g font-family="Sans Serif" font-size="12px"><text x="251.6724" y="168.7883" fill="#000000" >H</text></g>
<g font-family="Sans Serif" font-size="12px"><text x="347.9927" y="192.7883" fill="#000000" >C</text></g>
<g font-family="Sans Serif" font-size="12px"><text x="347.6724" y="168.7883" fill="#000000" >H</text></g>
<g font-family="Sans Serif" font-size="12px"><text x="323.6724" y="216.7883" fill="#000000" >H</text></g>
<g font-family="Sans Serif" font-size="12px"><text x="347.6724" y="216.7883" fill="#000000" >H</text></g>
<g font-family="Sans Serif" font-size="12px"><text x="227.6724" y="192.7883" fill="#000000" >H</text></g>
<line x1="310.3677" y1="188.2883" x2="321.9927" y2="188.2883" stroke-width="1" stroke="#000000" />
<line x1="376.1802" y1="182.7883" x2="376.1802" y2="172.7883" stroke-width="1" stroke="#000000" />
<line x1="352.1802" y1="182.7883" x2="352.1802" y2="172.7883" stroke-width="1" stroke="#000000" />
<line x1="376.1802" y1="196.7883" x2="376.1802" y2="206.7883" stroke-width="1" stroke="#000000" />
<line x1="328.1802" y1="196.7883" x2="328.1802" y2="206.7883" stroke-width="1" stroke="#000000" />
<line x1="304.1802" y1="182.7883" x2="304.1802" y2="172.7883" stroke-width="1" stroke="#000000" />
<line x1="358.3677" y1="188.2883" x2="369.9927" y2="188.2883" stroke-width="1" stroke="#000000" />
<line x1="256.1802" y1="196.7883" x2="256.1802" y2="206.7883" stroke-width="1" stroke="#000000" />
<line x1="334.3677" y1="188.2883" x2="345.9927" y2="188.2883" stroke-width="1" stroke="#000000" />
<line x1="280.1802" y1="182.7883" x2="280.1802" y2="172.7883" stroke-width="1" stroke="#000000" />
<line x1="328.1802" y1="182.7883" x2="328.1802" y2="172.7883" stroke-width="1" stroke="#000000" />
<line x1="297.9927" y1="185.2883" x2="286.3677" y2="185.2883" stroke-width="1" stroke="#000000" />
<line x1="297.9927" y1="191.2883" x2="286.3677" y2="191.2883" stroke-width="1" stroke="#000000" />
<line x1="273.9927" y1="188.2883" x2="262.3677" y2="188.2883" stroke-width="1" stroke="#000000" />
<line x1="249.9927" y1="188.2883" x2="238.688" y2="188.2883" stroke-width="1" stroke="#000000" />
<line x1="382.3677" y1="188.2883" x2="393.6724" y2="188.2883" stroke-width="1" stroke="#000000" />
<line x1="352.1802" y1="196.7883" x2="352.1802" y2="206.7883" stroke-width="1" stroke="#000000" />
<line x1="256.1802" y1="182.7883" x2="256.1802" y2="172.7883" stroke-width="1" stroke="#000000" />
</g>
</svg>