<?xml version="1.0" encoding="UTF-8" ?><svg viewBox="246 159 213 75"
    version="1.1" xmlns="http://www.w3.org/2000/svg" >
<g fill="none" stroke-linecap="square" font-style="normal" >
<g font-family="Sans Serif" font-size="12px"><text x="372.4431" y="201.7973" fill="#000000" >C</text></g>
<g font-family="Sans Serif" font-size="12px"><text x="396.4431" y="201.7973" fill="#000000" >C</text></g>
<g font-family="Sans Serif" font-size="12px"><text x="372.1228" y="225.7973" fill="#000000" >H</text></g>
<g font-family="Sans Serif" font-size="12px"><text x="348.1228" y="177.7973" fill="#000000" >H</text></g>
<g font-family="Sans Serif" font-size="12px"><text x="324.4431" y="201.7973" fill="#000000" >C</text></g>
<g font-family="Sans Serif" font-size="12px"><text x="396.1228" y="225.7973" fill="#000000" >H</text></g>
<g font-family="Sans Serif" font-size="12px"><text x="372.1228" y="177.7973" fill="#000000" >H</text></g>
<g font-family="Sans Serif" font-size="12px"><text x="420.4431" y="201.7973" fill="#000000" >C</text></g>
<g font-family="Sans Serif" font-size="12px"><text x="444.1228" y="201.7973" fill="#000000" >H</text></g>
<g font-family="Sans Serif" font-size="12px"><text x="396.1228" y="177.7973" fill="#000000" >H</text></g>
<g font-family="Sans Serif" font-size="12px"><text x="300.4431" y="201.7973" fill="#000000" >C</text></g>
<g font-family="Sans Serif" font-size="12px"><text x="252.1228" y="201.7973" fill="#000000" >H</text></g>
<g font-family="Sans Serif" font-size="12px"><text x="348.4431" y="201.7973" fill="#000000" >C</text></g>
<g font-family="Sans Serif" font-size="12px"><text x="276.4431" y="201.7973" fill="#000000" >C</text></g>
<g font-family="Sans Serif" font-size="12px"><text x="348.1228" y="225.7973" fill="#000000" >H</text></g>
<g font-family="Sans Serif" font-size="12px"><text x="324.1228" y="225.7973" fill="#000000" >H</text></g>
<g font-family="Sans Serif" font-size="12px"><text x="324.1228" y="177.7973" fill="#000000" >H</text></g>
<g font-family="Sans Serif" font-size="12px"><text x="420.1228" y="225.7973" fill="#000000" >H</text></g>
<g font-family="Sans Serif" font-size="12px"><text x="420.1228" y="177.7973" fill="#000000" >H</text></g>
<line x1="310.8181" y1="197.2973" x2="322.4431" y2="197.2973" stroke-width="1" stroke="#000000" />
<line x1="274.4431" y1="197.2973" x2="263.1384" y2="197.2973" stroke-width="1" stroke="#000000" />
<line x1="382.8181" y1="197.2973" x2="394.4431" y2="197.2973" stroke-width="1" stroke="#000000" />
<line x1="328.6306" y1="205.7973" x2="328.6306" y2="215.7973" stroke-width="1" stroke="#000000" />
<line x1="358.8181" y1="197.2973" x2="370.4431" y2="197.2973" stroke-width="1" stroke="#000000" />
<line x1="286.8181" y1="197.2973" x2="298.4431" y2="197.2973" stroke-width="1" stroke="#000000" />
<line x1="288.2713" y1="192.7973" x2="296.99" y2="192.7973" stroke-width="1" stroke="#000000" />
<line x1="288.2713" y1="201.7973" x2="296.99" y2="201.7973" stroke-width="1" stroke="#000000" />
<line x1="328.6306" y1="191.7973" x2="328.6306" y2="181.7973" stroke-width="1" stroke="#000000" />
<line x1="424.6306" y1="205.7973" x2="424.6306" y2="215.7973" stroke-width="1" stroke="#000000" />
<line x1="406.8181" y1="197.2973" x2="418.4431" y2="197.2973" stroke-width="1" stroke="#000000" />
<line x1="352.6306" y1="205.7973" x2="352.6306" y2="215.7973" stroke-width="1" stroke="#000000" />
<line x1="352.6306" y1="191.7973" x2="352.6306" y2="181.7973" stroke-width="1" stroke="#000000" />
<line x1="334.8181" y1="197.2973" x2="346.4431" y2="197.2973" stroke-width="1" stroke="#000000" />
<line x1="400.6306" y1="205.7973" x2="400.6306" y2="215.7973" stroke-width="1" stroke="#000000" />
<line x1="424.6306" y1="191.7973" x2="424.6306" y2="181.7973" stroke-width="1" stroke="#000000" />
<line x1="430.8181" y1="197.2973" x2="442.1228" y2="197.2973" stroke-width="1" stroke="#000000" />
<line x1="376.6306" y1="191.7973" x2="376.6306" y2="181.7973" stroke-width="1" stroke="#000000" />
<line x1="376.6306" y1="205.7973" x2="376.6306" y2="215.7973" stroke-width="1" stroke="#000000" />
<line x1="400.6306" y1="191.7973" x2="400.6306" y2="181.7973" stroke-width="1" stroke="#000000" />
</g>
</svg>