<?xml version="1.0" encoding="UTF-8" ?><svg viewBox="222 165 129 110"
    version="1.1" xmlns="http://www.w3.org/2000/svg" >
<g fill="none" stroke-linecap="square" font-style="normal" >
<g font-family="Sans Serif" font-size="12px"><text x="300.5148" y="183.0301" fill="#000000" >H</text></g>
<g font-family="Sans Serif" font-size="12px"><text x="276.8351" y="224.5901" fill="#000000" >C</text></g>
<g font-family="Sans Serif" font-size="12px"><text x="252.8351" y="224.5901" fill="#000000" >C</text></g>
<g font-family="Sans Serif" font-size="12px"><text x="312.8351" y="245.3701" fill="#000000" >C</text></g>
<g font-family="Sans Serif" font-size="12px"><text x="276.5148" y="200.5901" fill="#000000" >H</text></g>
<g font-family="Sans Serif" font-size="12px"><text x="276.5148" y="248.5901" fill="#000000" >H</text></g>
<g font-family="Sans Serif" font-size="12px"><text x="300.8351" y="224.5901" fill="#000000" >C</text></g>
<g font-family="Sans Serif" font-size="12px"><text x="336.5148" y="203.8101" fill="#000000" >H</text></g>
<g font-family="Sans Serif" font-size="12px"><text x="324.5148" y="183.0301" fill="#000000" >H</text></g>
<g font-family="Sans Serif" font-size="12px"><text x="228.5148" y="224.5901" fill="#000000" >H</text></g>
<g font-family="Sans Serif" font-size="12px"><text x="336.5148" y="245.3701" fill="#000000" >H</text></g>
<g font-family="Sans Serif" font-size="12px"><text x="300.5148" y="266.1501" fill="#000000" >H</text></g>
<g font-family="Sans Serif" font-size="12px"><text x="312.8351" y="203.8101" fill="#000000" >C</text></g>
<g font-family="Sans Serif" font-size="12px"><text x="324.3039" y="224.5901" fill="#000000" >O</text></g>
<g font-family="Sans Serif" font-size="12px"><text x="333.7414" y="224.5901" fill="#000000" >H</text></g>
<g font-family="Sans Serif" font-size="12px"><text x="324.5148" y="266.1501" fill="#000000" >H</text></g>
<g font-family="Sans Serif" font-size="12px"><text x="252.5148" y="200.5901" fill="#000000" >H</text></g>
<g font-family="Sans Serif" font-size="12px"><text x="252.5148" y="248.5901" fill="#000000" >H</text></g>
<line x1="323.2101" y1="240.8701" x2="334.5148" y2="240.8701" stroke-width="1" stroke="#000000" />
<line x1="311.2101" y1="220.0901" x2="322.3039" y2="220.0901" stroke-width="1" stroke="#000000" />
<line x1="257.0226" y1="228.5901" x2="257.0226" y2="238.5901" stroke-width="1" stroke="#000000" />
<line x1="281.0226" y1="214.5901" x2="281.0226" y2="204.5901" stroke-width="1" stroke="#000000" />
<line x1="321.9312" y1="249.3701" x2="325.8465" y2="256.1501" stroke-width="1" stroke="#000000" />
<line x1="309.9312" y1="228.5901" x2="313.8465" y2="235.3701" stroke-width="1" stroke="#000000" />
<line x1="312.1141" y1="249.3701" x2="308.1988" y2="256.1501" stroke-width="1" stroke="#000000" />
<line x1="298.8351" y1="220.0901" x2="287.2101" y2="220.0901" stroke-width="1" stroke="#000000" />
<line x1="320.1988" y1="193.8101" x2="324.1141" y2="187.0301" stroke-width="1" stroke="#000000" />
<line x1="313.8465" y1="193.8101" x2="309.9312" y2="187.0301" stroke-width="1" stroke="#000000" />
<line x1="250.8351" y1="220.0901" x2="239.5304" y2="220.0901" stroke-width="1" stroke="#000000" />
<line x1="308.1988" y1="214.5901" x2="312.1141" y2="207.8101" stroke-width="1" stroke="#000000" />
<line x1="257.0226" y1="214.5901" x2="257.0226" y2="204.5901" stroke-width="1" stroke="#000000" />
<line x1="274.8351" y1="220.0901" x2="263.2101" y2="220.0901" stroke-width="1" stroke="#000000" />
<line x1="281.0226" y1="228.5901" x2="281.0226" y2="238.5901" stroke-width="1" stroke="#000000" />
<line x1="323.2101" y1="199.3101" x2="334.5148" y2="199.3101" stroke-width="1" stroke="#000000" />
</g>
</svg>