<?xml version="1.0" encoding="UTF-8" ?><svg viewBox="205 167 166 87"
    version="1.1" xmlns="http://www.w3.org/2000/svg" >
<g fill="none" stroke-linecap="square" font-style="normal" >
<g font-family="Sans Serif" font-size="12px"><text x="327.5491" y="242.3971" fill="#000000" >H</text></g>
<g font-family="Sans Serif" font-size="12px"><text x="265.2091" y="188.8371" fill="#000000" >H</text></g>
<g font-family="Sans Serif" font-size="12px"><text x="261.9891" y="242.3971" fill="#000000" >H</text></g>
<g font-family="Sans Serif" font-size="12px"><text x="220.4291" y="200.8371" fill="#000000" >H</text></g>
<g font-family="Sans Serif" font-size="12px"><text x="295.0894" y="209.6171" fill="#000000" >C</text></g>
<g font-family="Sans Serif" font-size="12px"><text x="211.6491" y="233.6171" fill="#000000" >H</text></g>
<g font-family="Sans Serif" font-size="12px"><text x="232.4291" y="245.6171" fill="#000000" >H</text></g>
<g font-family="Sans Serif" font-size="12px"><text x="357.1091" y="197.6171" fill="#000000" >H</text></g>
<g font-family="Sans Serif" font-size="12px"><text x="232.7494" y="221.6171" fill="#000000" >C</text></g>
<g font-family="Sans Serif" font-size="12px"><text x="357.1091" y="221.6171" fill="#000000" >H</text></g>
<g font-family="Sans Serif" font-size="12px"><text x="240.9982" y="188.8371" fill="#000000" >O</text></g>
<g font-family="Sans Serif" font-size="12px"><text x="231.9826" y="188.8371" fill="#000000" >H</text></g>
<g font-family="Sans Serif" font-size="12px"><text x="306.7691" y="188.8371" fill="#000000" >H</text></g>
<g font-family="Sans Serif" font-size="12px"><text x="336.3291" y="185.6171" fill="#000000" >H</text></g>
<g font-family="Sans Serif" font-size="12px"><text x="336.6494" y="209.6171" fill="#000000" >C</text></g>
<g font-family="Sans Serif" font-size="12px"><text x="253.5294" y="209.6171" fill="#000000" >C</text></g>
<g font-family="Sans Serif" font-size="12px"><text x="315.8694" y="221.6171" fill="#000000" >C</text></g>
<g font-family="Sans Serif" font-size="12px"><text x="274.3094" y="221.6171" fill="#000000" >C</text></g>
<g font-family="Sans Serif" font-size="12px"><text x="282.7691" y="188.8371" fill="#000000" >H</text></g>
<g font-family="Sans Serif" font-size="12px"><text x="285.9891" y="242.3971" fill="#000000" >H</text></g>
<g font-family="Sans Serif" font-size="12px"><text x="303.5491" y="242.3971" fill="#000000" >H</text></g>
<line x1="305.4644" y1="208.6903" x2="313.8694" y2="213.544" stroke-width="1" stroke="#000000" />
<line x1="324.9655" y1="225.6171" x2="328.8808" y2="232.3971" stroke-width="1" stroke="#000000" />
<line x1="347.0244" y1="208.6903" x2="355.1091" y2="213.359" stroke-width="1" stroke="#000000" />
<line x1="283.4055" y1="225.6171" x2="287.3208" y2="232.3971" stroke-width="1" stroke="#000000" />
<line x1="302.4531" y1="199.6171" x2="306.3684" y2="192.8371" stroke-width="1" stroke="#000000" />
<line x1="296.1008" y1="199.6171" x2="292.1855" y2="192.8371" stroke-width="1" stroke="#000000" />
<line x1="233.7608" y1="211.6171" x2="229.8455" y2="204.8371" stroke-width="1" stroke="#000000" />
<line x1="254.5408" y1="199.6171" x2="250.6255" y2="192.8371" stroke-width="1" stroke="#000000" />
<line x1="315.1484" y1="225.6171" x2="311.2331" y2="232.3971" stroke-width="1" stroke="#000000" />
<line x1="236.9369" y1="225.6171" x2="236.9369" y2="235.6171" stroke-width="1" stroke="#000000" />
<line x1="326.2444" y1="213.544" x2="334.6494" y2="208.6903" stroke-width="1" stroke="#000000" />
<line x1="273.5884" y1="225.6171" x2="269.6731" y2="232.3971" stroke-width="1" stroke="#000000" />
<line x1="263.9044" y1="208.6903" x2="272.3094" y2="213.544" stroke-width="1" stroke="#000000" />
<line x1="347.0244" y1="201.544" x2="355.1091" y2="196.8752" stroke-width="1" stroke="#000000" />
<line x1="260.8931" y1="199.6171" x2="264.8084" y2="192.8371" stroke-width="1" stroke="#000000" />
<line x1="243.1244" y1="213.544" x2="251.5294" y2="208.6903" stroke-width="1" stroke="#000000" />
<line x1="340.8369" y1="199.6171" x2="340.8369" y2="189.6171" stroke-width="1" stroke="#000000" />
<line x1="284.6844" y1="213.544" x2="293.0894" y2="208.6903" stroke-width="1" stroke="#000000" />
<line x1="230.7494" y1="220.6903" x2="222.6647" y2="225.359" stroke-width="1" stroke="#000000" />
</g>
</svg>