<?xml version="1.0" encoding="UTF-8" ?><svg viewBox="235 175 165 99"
    version="1.1" xmlns="http://www.w3.org/2000/svg" >
<g fill="none" stroke-linecap="square" font-style="normal" >
<g font-family="Sans Serif" font-size="12px"><text x="334.5425" y="253.5631" fill="#000000" >H</text></g>
<g font-family="Sans Serif" font-size="12px"><text x="290.0828" y="217.5631" fill="#000000" >C</text></g>
<g font-family="Sans Serif" font-size="12px"><text x="313.7625" y="265.5631" fill="#000000" >H</text></g>
<g font-family="Sans Serif" font-size="12px"><text x="266.0828" y="217.5631" fill="#000000" >C</text></g>
<g font-family="Sans Serif" font-size="12px"><text x="265.7625" y="241.5631" fill="#000000" >H</text></g>
<g font-family="Sans Serif" font-size="12px"><text x="265.7625" y="193.5631" fill="#000000" >H</text></g>
<g font-family="Sans Serif" font-size="12px"><text x="338.0828" y="217.5631" fill="#000000" >C</text></g>
<g font-family="Sans Serif" font-size="12px"><text x="292.9825" y="253.5631" fill="#000000" >H</text></g>
<g font-family="Sans Serif" font-size="12px"><text x="361.7625" y="193.5631" fill="#000000" >H</text></g>
<g font-family="Sans Serif" font-size="12px"><text x="362.0828" y="217.5631" fill="#000000" >C</text></g>
<g font-family="Sans Serif" font-size="12px"><text x="385.7625" y="217.5631" fill="#000000" >H</text></g>
<g font-family="Sans Serif" font-size="12px"><text x="337.7625" y="241.5631" fill="#000000" >H</text></g>
<g font-family="Sans Serif" font-size="12px"><text x="313.5515" y="193.5631" fill="#000000" >O</text></g>
<g font-family="Sans Serif" font-size="12px"><text x="322.989" y="193.5631" fill="#000000" >H</text></g>
<g font-family="Sans Serif" font-size="12px"><text x="241.7625" y="217.5631" fill="#000000" >H</text></g>
<g font-family="Sans Serif" font-size="12px"><text x="289.7625" y="241.5631" fill="#000000" >H</text></g>
<g font-family="Sans Serif" font-size="12px"><text x="289.7625" y="193.5631" fill="#000000" >H</text></g>
<g font-family="Sans Serif" font-size="12px"><text x="361.7625" y="241.5631" fill="#000000" >H</text></g>
<g font-family="Sans Serif" font-size="12px"><text x="314.0828" y="241.5631" fill="#000000" >C</text></g>
<g font-family="Sans Serif" font-size="12px"><text x="337.7625" y="193.5631" fill="#000000" >H</text></g>
<g font-family="Sans Serif" font-size="12px"><text x="314.0828" y="217.5631" fill="#000000" >C</text></g>
<line x1="318.2703" y1="221.5631" x2="318.2703" y2="231.5631" stroke-width="1" stroke="#000000" />
<line x1="276.4578" y1="213.0631" x2="288.0828" y2="213.0631" stroke-width="1" stroke="#000000" />
<line x1="300.4578" y1="213.0631" x2="312.0828" y2="213.0631" stroke-width="1" stroke="#000000" />
<line x1="318.2703" y1="245.5631" x2="318.2703" y2="255.5631" stroke-width="1" stroke="#000000" />
<line x1="312.0828" y1="240.6362" x2="303.9981" y2="245.3049" stroke-width="1" stroke="#000000" />
<line x1="366.2703" y1="221.5631" x2="366.2703" y2="231.5631" stroke-width="1" stroke="#000000" />
<line x1="324.4578" y1="213.0631" x2="336.0828" y2="213.0631" stroke-width="1" stroke="#000000" />
<line x1="348.4578" y1="213.0631" x2="360.0828" y2="213.0631" stroke-width="1" stroke="#000000" />
<line x1="372.4578" y1="213.0631" x2="383.7625" y2="213.0631" stroke-width="1" stroke="#000000" />
<line x1="270.2703" y1="221.5631" x2="270.2703" y2="231.5631" stroke-width="1" stroke="#000000" />
<line x1="318.2703" y1="207.5631" x2="318.2703" y2="197.5631" stroke-width="1" stroke="#000000" />
<line x1="366.2703" y1="207.5631" x2="366.2703" y2="197.5631" stroke-width="1" stroke="#000000" />
<line x1="294.2703" y1="221.5631" x2="294.2703" y2="231.5631" stroke-width="1" stroke="#000000" />
<line x1="270.2703" y1="207.5631" x2="270.2703" y2="197.5631" stroke-width="1" stroke="#000000" />
<line x1="342.2703" y1="207.5631" x2="342.2703" y2="197.5631" stroke-width="1" stroke="#000000" />
<line x1="294.2703" y1="207.5631" x2="294.2703" y2="197.5631" stroke-width="1" stroke="#000000" />
<line x1="324.4578" y1="240.6362" x2="332.5425" y2="245.3049" stroke-width="1" stroke="#000000" />
<line x1="264.0828" y1="213.0631" x2="252.7781" y2="213.0631" stroke-width="1" stroke="#000000" />
<line x1="342.2703" y1="221.5631" x2="342.2703" y2="231.5631" stroke-width="1" stroke="#000000" />
</g>
</svg>