<?xml version="1.0" encoding="UTF-8" ?><svg viewBox="217 123 222 171"
    version="1.1" xmlns="http://www.w3.org/2000/svg" >
<g fill="none" stroke-linecap="square" font-style="normal" >
<g font-family="Sans Serif" font-size="12px"><text x="376.303" y="189.9595" fill="#000000" >H</text></g>
<g font-family="Sans Serif" font-size="12px"><text x="280.6233" y="165.9595" fill="#000000" >C</text></g>
<g font-family="Sans Serif" font-size="12px"><text x="256.303" y="189.9595" fill="#000000" >H</text></g>
<g font-family="Sans Serif" font-size="12px"><text x="301.083" y="153.9595" fill="#000000" >H</text></g>
<g font-family="Sans Serif" font-size="12px"><text x="292.303" y="258.7395" fill="#000000" >H</text></g>
<g font-family="Sans Serif" font-size="12px"><text x="280.6233" y="237.9595" fill="#000000" >C</text></g>
<g font-family="Sans Serif" font-size="12px"><text x="352.6233" y="189.9595" fill="#000000" >C</text></g>
<g font-family="Sans Serif" font-size="12px"><text x="256.6233" y="213.9595" fill="#000000" >C</text></g>
<g font-family="Sans Serif" font-size="12px"><text x="352.303" y="141.9595" fill="#000000" >H</text></g>
<g font-family="Sans Serif" font-size="12px"><text x="307.523" y="273.9595" fill="#000000" >H</text></g>
<g font-family="Sans Serif" font-size="12px"><text x="259.523" y="249.9595" fill="#000000" >H</text></g>
<g font-family="Sans Serif" font-size="12px"><text x="376.6233" y="213.9595" fill="#000000" >C</text></g>
<g font-family="Sans Serif" font-size="12px"><text x="328.303" y="285.9595" fill="#000000" >H</text></g>
<g font-family="Sans Serif" font-size="12px"><text x="328.6233" y="261.9595" fill="#000000" >C</text></g>
<g font-family="Sans Serif" font-size="12px"><text x="373.083" y="153.9595" fill="#000000" >H</text></g>
<g font-family="Sans Serif" font-size="12px"><text x="232.0921" y="213.9595" fill="#000000" >O</text></g>
<g font-family="Sans Serif" font-size="12px"><text x="223.0764" y="213.9595" fill="#000000" >H</text></g>
<g font-family="Sans Serif" font-size="12px"><text x="424.303" y="213.9595" fill="#000000" >H</text></g>
<g font-family="Sans Serif" font-size="12px"><text x="400.303" y="189.9595" fill="#000000" >H</text></g>
<g font-family="Sans Serif" font-size="12px"><text x="400.303" y="237.9595" fill="#000000" >H</text></g>
<g font-family="Sans Serif" font-size="12px"><text x="349.083" y="273.9595" fill="#000000" >H</text></g>
<g font-family="Sans Serif" font-size="12px"><text x="304.303" y="237.9595" fill="#000000" >H</text></g>
<g font-family="Sans Serif" font-size="12px"><text x="304.303" y="189.9595" fill="#000000" >H</text></g>
<g font-family="Sans Serif" font-size="12px"><text x="307.523" y="249.9595" fill="#000000" >H</text></g>
<g font-family="Sans Serif" font-size="12px"><text x="352.303" y="237.9595" fill="#000000" >H</text></g>
<g font-family="Sans Serif" font-size="12px"><text x="373.083" y="177.9595" fill="#000000" >H</text></g>
<g font-family="Sans Serif" font-size="12px"><text x="328.6233" y="237.9595" fill="#000000" >C</text></g>
<g font-family="Sans Serif" font-size="12px"><text x="280.6233" y="189.9595" fill="#000000" >C</text></g>
<g font-family="Sans Serif" font-size="12px"><text x="331.523" y="177.9595" fill="#000000" >H</text></g>
<g font-family="Sans Serif" font-size="12px"><text x="259.523" y="153.9595" fill="#000000" >H</text></g>
<g font-family="Sans Serif" font-size="12px"><text x="376.303" y="237.9595" fill="#000000" >H</text></g>
<g font-family="Sans Serif" font-size="12px"><text x="259.523" y="177.9595" fill="#000000" >H</text></g>
<g font-family="Sans Serif" font-size="12px"><text x="352.6233" y="165.9595" fill="#000000" >C</text></g>
<g font-family="Sans Serif" font-size="12px"><text x="304.6233" y="213.9595" fill="#000000" >C</text></g>
<g font-family="Sans Serif" font-size="12px"><text x="331.523" y="153.9595" fill="#000000" >H</text></g>
<g font-family="Sans Serif" font-size="12px"><text x="400.6233" y="213.9595" fill="#000000" >C</text></g>
<g font-family="Sans Serif" font-size="12px"><text x="352.6233" y="213.9595" fill="#000000" >C</text></g>
<g font-family="Sans Serif" font-size="12px"><text x="268.303" y="258.7395" fill="#000000" >H</text></g>
<g font-family="Sans Serif" font-size="12px"><text x="256.303" y="237.9595" fill="#000000" >H</text></g>
<g font-family="Sans Serif" font-size="12px"><text x="349.083" y="249.9595" fill="#000000" >H</text></g>
<g font-family="Sans Serif" font-size="12px"><text x="328.303" y="189.9595" fill="#000000" >H</text></g>
<g font-family="Sans Serif" font-size="12px"><text x="280.6233" y="213.9595" fill="#000000" >C</text></g>
<g font-family="Sans Serif" font-size="12px"><text x="301.083" y="177.9595" fill="#000000" >H</text></g>
<g font-family="Sans Serif" font-size="12px"><text x="328.6233" y="213.9595" fill="#000000" >C</text></g>
<g font-family="Sans Serif" font-size="12px"><text x="280.303" y="141.9595" fill="#000000" >H</text></g>
<line x1="289.7194" y1="241.9595" x2="293.6347" y2="248.7395" stroke-width="1" stroke="#000000" />
<line x1="284.8108" y1="203.9595" x2="284.8108" y2="193.9595" stroke-width="1" stroke="#000000" />
<line x1="260.8108" y1="217.9595" x2="260.8108" y2="227.9595" stroke-width="1" stroke="#000000" />
<line x1="260.8108" y1="203.9595" x2="260.8108" y2="193.9595" stroke-width="1" stroke="#000000" />
<line x1="350.6233" y1="181.8863" x2="342.5386" y2="177.2176" stroke-width="1" stroke="#000000" />
<line x1="278.6233" y1="157.8863" x2="270.5386" y2="153.2176" stroke-width="1" stroke="#000000" />
<line x1="284.8108" y1="217.9595" x2="284.8108" y2="227.9595" stroke-width="1" stroke="#000000" />
<line x1="290.9983" y1="181.8863" x2="299.083" y2="177.2176" stroke-width="1" stroke="#000000" />
<line x1="308.8108" y1="203.9595" x2="308.8108" y2="193.9595" stroke-width="1" stroke="#000000" />
<line x1="284.8108" y1="155.9595" x2="284.8108" y2="145.9595" stroke-width="1" stroke="#000000" />
<line x1="308.8108" y1="217.9595" x2="308.8108" y2="227.9595" stroke-width="1" stroke="#000000" />
<line x1="266.9983" y1="209.4595" x2="278.6233" y2="209.4595" stroke-width="1" stroke="#000000" />
<line x1="338.9983" y1="261.0326" x2="347.083" y2="265.7013" stroke-width="1" stroke="#000000" />
<line x1="326.6233" y1="237.0326" x2="318.5386" y2="241.7013" stroke-width="1" stroke="#000000" />
<line x1="404.8108" y1="217.9595" x2="404.8108" y2="227.9595" stroke-width="1" stroke="#000000" />
<line x1="332.8108" y1="217.9595" x2="332.8108" y2="227.9595" stroke-width="1" stroke="#000000" />
<line x1="410.9983" y1="209.4595" x2="422.303" y2="209.4595" stroke-width="1" stroke="#000000" />
<line x1="362.9983" y1="157.8863" x2="371.083" y2="153.2176" stroke-width="1" stroke="#000000" />
<line x1="278.6233" y1="181.8863" x2="270.5386" y2="177.2176" stroke-width="1" stroke="#000000" />
<line x1="356.8108" y1="203.9595" x2="356.8108" y2="193.9595" stroke-width="1" stroke="#000000" />
<line x1="279.9022" y1="241.9595" x2="275.9869" y2="248.7395" stroke-width="1" stroke="#000000" />
<line x1="254.6233" y1="209.4595" x2="243.5296" y2="209.4595" stroke-width="1" stroke="#000000" />
<line x1="356.8108" y1="217.9595" x2="356.8108" y2="227.9595" stroke-width="1" stroke="#000000" />
<line x1="332.8108" y1="241.9595" x2="332.8108" y2="251.9595" stroke-width="1" stroke="#000000" />
<line x1="380.8108" y1="203.9595" x2="380.8108" y2="193.9595" stroke-width="1" stroke="#000000" />
<line x1="362.9983" y1="181.8863" x2="371.083" y2="177.2176" stroke-width="1" stroke="#000000" />
<line x1="290.9983" y1="209.4595" x2="302.6233" y2="209.4595" stroke-width="1" stroke="#000000" />
<line x1="356.8108" y1="179.9595" x2="356.8108" y2="169.9595" stroke-width="1" stroke="#000000" />
<line x1="338.9983" y1="237.0326" x2="347.083" y2="241.7013" stroke-width="1" stroke="#000000" />
<line x1="380.8108" y1="217.9595" x2="380.8108" y2="227.9595" stroke-width="1" stroke="#000000" />
<line x1="350.6233" y1="157.8863" x2="342.5386" y2="153.2176" stroke-width="1" stroke="#000000" />
<line x1="314.9983" y1="209.4595" x2="326.6233" y2="209.4595" stroke-width="1" stroke="#000000" />
<line x1="290.9983" y1="157.8863" x2="299.083" y2="153.2176" stroke-width="1" stroke="#000000" />
<line x1="386.9983" y1="209.4595" x2="398.6233" y2="209.4595" stroke-width="1" stroke="#000000" />
<line x1="326.6233" y1="261.0326" x2="318.5386" y2="265.7013" stroke-width="1" stroke="#000000" />
<line x1="404.8108" y1="203.9595" x2="404.8108" y2="193.9595" stroke-width="1" stroke="#000000" />
<line x1="332.8108" y1="203.9595" x2="332.8108" y2="193.9595" stroke-width="1" stroke="#000000" />
<line x1="284.8108" y1="179.9595" x2="284.8108" y2="169.9595" stroke-width="1" stroke="#000000" />
<line x1="356.8108" y1="155.9595" x2="356.8108" y2="145.9595" stroke-width="1" stroke="#000000" />
<line x1="338.9983" y1="209.4595" x2="350.6233" y2="209.4595" stroke-width="1" stroke="#000000" />
<line x1="362.9983" y1="209.4595" x2="374.6233" y2="209.4595" stroke-width="1" stroke="#000000" />
<line x1="332.8108" y1="265.9595" x2="332.8108" y2="275.9595" stroke-width="1" stroke="#000000" />
<line x1="278.6233" y1="237.0326" x2="270.5386" y2="241.7013" stroke-width="1" stroke="#000000" />
</g>
</svg>