<?xml version="1.0" encoding="UTF-8" ?><svg viewBox="260 94 113 194"
    version="1.1" xmlns="http://www.w3.org/2000/svg" >
<g fill="none" stroke-linecap="square" font-style="normal" >
<g font-family="Sans Serif" font-size="12px"><text x="353.0591" y="232.5089" fill="#000000" >H</text></g>
<g font-family="Sans Serif" font-size="12px"><text x="329.3794" y="208.5089" fill="#000000" >C</text></g>
<g font-family="Sans Serif" font-size="12px"><text x="349.6281" y="148.5089" fill="#000000" >O</text></g>
<g font-family="Sans Serif" font-size="12px"><text x="359.0656" y="148.5089" fill="#000000" >H</text></g>
<g font-family="Sans Serif" font-size="12px"><text x="287.4991" y="112.5089" fill="#000000" >H</text></g>
<g font-family="Sans Serif" font-size="12px"><text x="308.2791" y="124.5089" fill="#000000" >H</text></g>
<g font-family="Sans Serif" font-size="12px"><text x="305.0591" y="184.5089" fill="#000000" >H</text></g>
<g font-family="Sans Serif" font-size="12px"><text x="353.0591" y="184.5089" fill="#000000" >H</text></g>
<g font-family="Sans Serif" font-size="12px"><text x="329.0591" y="280.5089" fill="#000000" >H</text></g>
<g font-family="Sans Serif" font-size="12px"><text x="353.0591" y="256.5089" fill="#000000" >H</text></g>
<g font-family="Sans Serif" font-size="12px"><text x="353.0591" y="208.5089" fill="#000000" >H</text></g>
<g font-family="Sans Serif" font-size="12px"><text x="329.3794" y="184.5089" fill="#000000" >C</text></g>
<g font-family="Sans Serif" font-size="12px"><text x="329.3794" y="160.5089" fill="#000000" >C</text></g>
<g font-family="Sans Serif" font-size="12px"><text x="305.0591" y="208.5089" fill="#000000" >H</text></g>
<g font-family="Sans Serif" font-size="12px"><text x="308.5994" y="148.5089" fill="#000000" >C</text></g>
<g font-family="Sans Serif" font-size="12px"><text x="305.0591" y="256.5089" fill="#000000" >H</text></g>
<g font-family="Sans Serif" font-size="12px"><text x="305.0591" y="232.5089" fill="#000000" >H</text></g>
<g font-family="Sans Serif" font-size="12px"><text x="329.3794" y="232.5089" fill="#000000" >C</text></g>
<g font-family="Sans Serif" font-size="12px"><text x="266.7191" y="124.5089" fill="#000000" >H</text></g>
<g font-family="Sans Serif" font-size="12px"><text x="329.3794" y="256.5089" fill="#000000" >C</text></g>
<g font-family="Sans Serif" font-size="12px"><text x="329.0591" y="136.5089" fill="#000000" >H</text></g>
<g font-family="Sans Serif" font-size="12px"><text x="266.7191" y="148.5089" fill="#000000" >H</text></g>
<g font-family="Sans Serif" font-size="12px"><text x="287.4991" y="160.5089" fill="#000000" >H</text></g>
<g font-family="Sans Serif" font-size="12px"><text x="287.8194" y="136.5089" fill="#000000" >C</text></g>
<line x1="292.0069" y1="126.5089" x2="292.0069" y2="116.5089" stroke-width="1" stroke="#000000" />
<line x1="333.5669" y1="260.5089" x2="333.5669" y2="270.5089" stroke-width="1" stroke="#000000" />
<line x1="312.7869" y1="138.5089" x2="312.7869" y2="128.5089" stroke-width="1" stroke="#000000" />
<line x1="333.5669" y1="246.5089" x2="333.5669" y2="236.5089" stroke-width="1" stroke="#000000" />
<line x1="306.5994" y1="147.582" x2="298.5147" y2="152.2507" stroke-width="1" stroke="#000000" />
<line x1="339.7544" y1="252.0089" x2="351.0591" y2="252.0089" stroke-width="1" stroke="#000000" />
<line x1="339.7544" y1="152.4357" x2="347.6281" y2="147.8888" stroke-width="1" stroke="#000000" />
<line x1="306.5994" y1="140.4357" x2="298.1944" y2="135.582" stroke-width="1" stroke="#000000" />
<line x1="339.7544" y1="204.0089" x2="351.0591" y2="204.0089" stroke-width="1" stroke="#000000" />
<line x1="333.5669" y1="174.5089" x2="333.5669" y2="164.5089" stroke-width="1" stroke="#000000" />
<line x1="333.5669" y1="222.5089" x2="333.5669" y2="212.5089" stroke-width="1" stroke="#000000" />
<line x1="285.8194" y1="128.4357" x2="277.7347" y2="123.767" stroke-width="1" stroke="#000000" />
<line x1="339.7544" y1="180.0089" x2="351.0591" y2="180.0089" stroke-width="1" stroke="#000000" />
<line x1="327.3794" y1="228.0089" x2="316.0747" y2="228.0089" stroke-width="1" stroke="#000000" />
<line x1="333.5669" y1="150.5089" x2="333.5669" y2="140.5089" stroke-width="1" stroke="#000000" />
<line x1="327.3794" y1="252.0089" x2="316.0747" y2="252.0089" stroke-width="1" stroke="#000000" />
<line x1="285.8194" y1="135.582" x2="277.7347" y2="140.2507" stroke-width="1" stroke="#000000" />
<line x1="327.3794" y1="180.0089" x2="316.0747" y2="180.0089" stroke-width="1" stroke="#000000" />
<line x1="327.3794" y1="152.4357" x2="318.9744" y2="147.582" stroke-width="1" stroke="#000000" />
<line x1="327.3794" y1="204.0089" x2="316.0747" y2="204.0089" stroke-width="1" stroke="#000000" />
<line x1="333.5669" y1="198.5089" x2="333.5669" y2="188.5089" stroke-width="1" stroke="#000000" />
<line x1="339.7544" y1="228.0089" x2="351.0591" y2="228.0089" stroke-width="1" stroke="#000000" />
</g>
</svg>