<?xml version="1.0" encoding="UTF-8" ?><svg viewBox="174 166 214 80"
    version="1.1" xmlns="http://www.w3.org/2000/svg" >
<g fill="none" stroke-linecap="square" font-style="normal" >
<g font-family="Sans Serif" font-size="12px"><text x="237.7316" y="184.7831" fill="#000000" >H</text></g>
<g font-family="Sans Serif" font-size="12px"><text x="341.6409" y="238.3471" fill="#000000" >H</text></g>
<g font-family="Sans Serif" font-size="12px"><text x="180.9516" y="217.5631" fill="#000000" >H</text></g>
<g font-family="Sans Serif" font-size="12px"><text x="338.4209" y="184.7871" fill="#000000" >H</text></g>
<g font-family="Sans Serif" font-size="12px"><text x="362.4209" y="184.7871" fill="#000000" >H</text></g>
<g font-family="Sans Serif" font-size="12px"><text x="288.392" y="217.5631" fill="#000000" >C</text></g>
<g font-family="Sans Serif" font-size="12px"><text x="317.6409" y="238.3471" fill="#000000" >H</text></g>
<g font-family="Sans Serif" font-size="12px"><text x="205.272" y="217.5631" fill="#000000" >C</text></g>
<g font-family="Sans Serif" font-size="12px"><text x="216.9516" y="238.3431" fill="#000000" >H</text></g>
<g font-family="Sans Serif" font-size="12px"><text x="309.1777" y="205.5651" fill="#000000" >C</text></g>
<g font-family="Sans Serif" font-size="12px"><text x="234.5116" y="238.3431" fill="#000000" >H</text></g>
<g font-family="Sans Serif" font-size="12px"><text x="300.0716" y="238.3431" fill="#000000" >H</text></g>
<g font-family="Sans Serif" font-size="12px"><text x="350.7412" y="205.5671" fill="#000000" >C</text></g>
<g font-family="Sans Serif" font-size="12px"><text x="258.5116" y="238.3431" fill="#000000" >H</text></g>
<g font-family="Sans Serif" font-size="12px"><text x="246.832" y="217.5631" fill="#000000" >C</text></g>
<g font-family="Sans Serif" font-size="12px"><text x="296.8574" y="184.7851" fill="#000000" >H</text></g>
<g font-family="Sans Serif" font-size="12px"><text x="226.052" y="205.5631" fill="#000000" >C</text></g>
<g font-family="Sans Serif" font-size="12px"><text x="192.9516" y="238.3431" fill="#000000" >H</text></g>
<g font-family="Sans Serif" font-size="12px"><text x="255.2916" y="184.7831" fill="#000000" >H</text></g>
<g font-family="Sans Serif" font-size="12px"><text x="374.4209" y="205.5671" fill="#000000" >H</text></g>
<g font-family="Sans Serif" font-size="12px"><text x="279.2916" y="184.7831" fill="#000000" >H</text></g>
<g font-family="Sans Serif" font-size="12px"><text x="329.9612" y="217.5671" fill="#000000" >C</text></g>
<g font-family="Sans Serif" font-size="12px"><text x="267.612" y="205.5631" fill="#000000" >C</text></g>
<g font-family="Sans Serif" font-size="12px"><text x="276.0716" y="238.3431" fill="#000000" >H</text></g>
<g font-family="Sans Serif" font-size="12px"><text x="204.7407" y="193.5631" fill="#000000" >O</text></g>
<g font-family="Sans Serif" font-size="12px"><text x="195.7251" y="193.5631" fill="#000000" >H</text></g>
<g font-family="Sans Serif" font-size="12px"><text x="320.8574" y="184.7851" fill="#000000" >H</text></g>
<line x1="329.2401" y1="221.5671" x2="325.3248" y2="228.3471" stroke-width="1" stroke="#000000" />
<line x1="310.1891" y1="195.5651" x2="306.2738" y2="188.7851" stroke-width="1" stroke="#000000" />
<line x1="319.5527" y1="204.6382" x2="327.9612" y2="209.4939" stroke-width="1" stroke="#000000" />
<line x1="298.767" y1="209.4915" x2="307.1777" y2="204.6366" stroke-width="1" stroke="#000000" />
<line x1="358.1048" y1="195.5671" x2="362.0201" y2="188.7871" stroke-width="1" stroke="#000000" />
<line x1="316.5414" y1="195.5651" x2="320.4567" y2="188.7851" stroke-width="1" stroke="#000000" />
<line x1="204.5509" y1="221.5631" x2="200.6356" y2="228.3431" stroke-width="1" stroke="#000000" />
<line x1="277.987" y1="204.6362" x2="286.392" y2="209.4899" stroke-width="1" stroke="#000000" />
<line x1="203.272" y1="213.0631" x2="191.9673" y2="213.0631" stroke-width="1" stroke="#000000" />
<line x1="339.0572" y1="221.5671" x2="342.9725" y2="228.3471" stroke-width="1" stroke="#000000" />
<line x1="361.1162" y1="201.0671" x2="372.4209" y2="201.0671" stroke-width="1" stroke="#000000" />
<line x1="236.427" y1="204.6362" x2="244.832" y2="209.4899" stroke-width="1" stroke="#000000" />
<line x1="287.6709" y1="221.5631" x2="283.7556" y2="228.3431" stroke-width="1" stroke="#000000" />
<line x1="215.647" y1="209.4899" x2="224.052" y2="204.6362" stroke-width="1" stroke="#000000" />
<line x1="297.488" y1="221.5631" x2="301.4033" y2="228.3431" stroke-width="1" stroke="#000000" />
<line x1="214.368" y1="221.5631" x2="218.2833" y2="228.3431" stroke-width="1" stroke="#000000" />
<line x1="274.9756" y1="195.5631" x2="278.8909" y2="188.7831" stroke-width="1" stroke="#000000" />
<line x1="233.4156" y1="195.5631" x2="237.3309" y2="188.7831" stroke-width="1" stroke="#000000" />
<line x1="351.7525" y1="195.5671" x2="347.8372" y2="188.7871" stroke-width="1" stroke="#000000" />
<line x1="246.1109" y1="221.5631" x2="242.1956" y2="228.3431" stroke-width="1" stroke="#000000" />
<line x1="224.052" y1="197.4899" x2="216.1782" y2="192.943" stroke-width="1" stroke="#000000" />
<line x1="257.207" y1="209.4899" x2="265.612" y2="204.6362" stroke-width="1" stroke="#000000" />
<line x1="268.6233" y1="195.5631" x2="264.708" y2="188.7831" stroke-width="1" stroke="#000000" />
<line x1="255.928" y1="221.5631" x2="259.8433" y2="228.3431" stroke-width="1" stroke="#000000" />
<line x1="340.3362" y1="209.4939" x2="348.7412" y2="204.6402" stroke-width="1" stroke="#000000" />
</g>
</svg>