<?xml version="1.0" encoding="UTF-8" ?><svg viewBox="161 315 145 83"
    version="1.1" xmlns="http://www.w3.org/2000/svg" >
<g fill="none" stroke-linecap="square" font-style="normal" >
<g font-family="Sans Serif" font-size="12px"><text x="258.9713" y="336.4227" fill="#000000" >H</text></g>
<g font-family="Sans Serif" font-size="12px"><text x="220.6175" y="389.9827" fill="#000000" >H</text></g>
<g font-family="Sans Serif" font-size="12px"><text x="167.0529" y="345.2027" fill="#000000" >H</text></g>
<g font-family="Sans Serif" font-size="12px"><text x="167.0529" y="369.2027" fill="#000000" >H</text></g>
<g font-family="Sans Serif" font-size="12px"><text x="229.7224" y="357.2027" fill="#000000" >C</text></g>
<g font-family="Sans Serif" font-size="12px"><text x="250.507" y="369.2027" fill="#000000" >C</text></g>
<g font-family="Sans Serif" font-size="12px"><text x="199.8329" y="336.4227" fill="#000000" >H</text></g>
<g font-family="Sans Serif" font-size="12px"><text x="271.2916" y="357.2027" fill="#000000" >C</text></g>
<g font-family="Sans Serif" font-size="12px"><text x="229.1912" y="333.2027" fill="#000000" >O</text></g>
<g font-family="Sans Serif" font-size="12px"><text x="196.6175" y="389.9827" fill="#000000" >H</text></g>
<g font-family="Sans Serif" font-size="12px"><text x="238.1867" y="389.9827" fill="#000000" >H</text></g>
<g font-family="Sans Serif" font-size="12px"><text x="262.1867" y="389.9827" fill="#000000" >H</text></g>
<g font-family="Sans Serif" font-size="12px"><text x="208.9378" y="369.2027" fill="#000000" >C</text></g>
<g font-family="Sans Serif" font-size="12px"><text x="291.7513" y="345.2027" fill="#000000" >H</text></g>
<g font-family="Sans Serif" font-size="12px"><text x="188.1532" y="357.2027" fill="#000000" >C</text></g>
<g font-family="Sans Serif" font-size="12px"><text x="291.7513" y="369.2027" fill="#000000" >H</text></g>
<line x1="272.303" y1="347.2027" x2="268.3877" y2="340.4227" stroke-width="1" stroke="#000000" />
<line x1="206.9378" y1="361.1303" x2="198.5282" y2="356.2751" stroke-width="1" stroke="#000000" />
<line x1="186.1532" y1="349.1296" x2="178.0685" y2="344.4608" stroke-width="1" stroke="#000000" />
<line x1="186.1532" y1="356.2758" x2="178.0685" y2="360.9446" stroke-width="1" stroke="#000000" />
<line x1="240.0974" y1="356.2751" x2="248.507" y2="361.1303" stroke-width="1" stroke="#000000" />
<line x1="260.882" y1="361.1303" x2="269.2916" y2="356.2751" stroke-width="1" stroke="#000000" />
<line x1="236.9099" y1="347.2027" x2="236.9099" y2="337.2027" stroke-width="1" stroke="#000000" />
<line x1="230.9099" y1="347.2027" x2="230.9099" y2="337.2027" stroke-width="1" stroke="#000000" />
<line x1="195.5168" y1="347.2027" x2="199.4321" y2="340.4227" stroke-width="1" stroke="#000000" />
<line x1="218.0339" y1="373.2027" x2="221.9492" y2="379.9827" stroke-width="1" stroke="#000000" />
<line x1="208.2167" y1="373.2027" x2="204.3014" y2="379.9827" stroke-width="1" stroke="#000000" />
<line x1="249.786" y1="373.2027" x2="245.8707" y2="379.9827" stroke-width="1" stroke="#000000" />
<line x1="227.7224" y1="356.2751" x2="219.3128" y2="361.1303" stroke-width="1" stroke="#000000" />
<line x1="259.6031" y1="373.2027" x2="263.5184" y2="379.9827" stroke-width="1" stroke="#000000" />
<line x1="281.6666" y1="349.1296" x2="289.7513" y2="344.4608" stroke-width="1" stroke="#000000" />
<line x1="281.6666" y1="356.2758" x2="289.7513" y2="360.9446" stroke-width="1" stroke="#000000" />
</g>
</svg>