<?xml version="1.0" encoding="UTF-8" ?><svg viewBox="185 267 145 123"
    version="1.1" xmlns="http://www.w3.org/2000/svg" >
<g fill="none" stroke-linecap="square" font-style="normal" >
<g font-family="Sans Serif" font-size="12px"><text x="191.0575" y="369.2027" fill="#000000" >H</text></g>
<g font-family="Sans Serif" font-size="12px"><text x="232.9366" y="321.2027" fill="#000000" >C</text></g>
<g font-family="Sans Serif" font-size="12px"><text x="295.2916" y="309.2027" fill="#000000" >C</text></g>
<g font-family="Sans Serif" font-size="12px"><text x="274.507" y="321.2027" fill="#000000" >C</text></g>
<g font-family="Sans Serif" font-size="12px"><text x="315.7513" y="297.2027" fill="#000000" >H</text></g>
<g font-family="Sans Serif" font-size="12px"><text x="315.7513" y="321.2027" fill="#000000" >H</text></g>
<g font-family="Sans Serif" font-size="12px"><text x="253.1912" y="381.2027" fill="#000000" >O</text></g>
<g font-family="Sans Serif" font-size="12px"><text x="244.6163" y="300.4227" fill="#000000" >H</text></g>
<g font-family="Sans Serif" font-size="12px"><text x="199.8375" y="336.4227" fill="#000000" >H</text></g>
<g font-family="Sans Serif" font-size="12px"><text x="295.2916" y="357.2027" fill="#000000" >C</text></g>
<g font-family="Sans Serif" font-size="12px"><text x="220.6163" y="300.4227" fill="#000000" >H</text></g>
<g font-family="Sans Serif" font-size="12px"><text x="274.1867" y="297.2027" fill="#000000" >H</text></g>
<g font-family="Sans Serif" font-size="12px"><text x="294.9713" y="381.2027" fill="#000000" >H</text></g>
<g font-family="Sans Serif" font-size="12px"><text x="208.6163" y="321.2027" fill="#000000" >H</text></g>
<g font-family="Sans Serif" font-size="12px"><text x="212.1578" y="357.2027" fill="#000000" >C</text></g>
<g font-family="Sans Serif" font-size="12px"><text x="253.3975" y="333.2027" fill="#000000" >H</text></g>
<g font-family="Sans Serif" font-size="12px"><text x="253.7224" y="357.2027" fill="#000000" >C</text></g>
<g font-family="Sans Serif" font-size="12px"><text x="232.9378" y="345.2027" fill="#000000" >C</text></g>
<g font-family="Sans Serif" font-size="12px"><text x="211.8375" y="381.2027" fill="#000000" >H</text></g>
<g font-family="Sans Serif" font-size="12px"><text x="294.9667" y="333.2027" fill="#000000" >H</text></g>
<g font-family="Sans Serif" font-size="12px"><text x="253.4067" y="309.2027" fill="#000000" >H</text></g>
<g font-family="Sans Serif" font-size="12px"><text x="274.507" y="345.2027" fill="#000000" >C</text></g>
<g font-family="Sans Serif" font-size="12px"><text x="294.9713" y="285.2027" fill="#000000" >H</text></g>
<g font-family="Sans Serif" font-size="12px"><text x="315.7513" y="345.2027" fill="#000000" >H</text></g>
<g font-family="Sans Serif" font-size="12px"><text x="315.7513" y="369.2027" fill="#000000" >H</text></g>
<line x1="230.9366" y1="316.7027" x2="219.632" y2="316.7027" stroke-width="1" stroke="#000000" />
<line x1="278.6945" y1="335.2027" x2="278.6945" y2="325.2027" stroke-width="1" stroke="#000000" />
<line x1="299.4791" y1="299.2027" x2="299.4791" y2="289.2027" stroke-width="1" stroke="#000000" />
<line x1="305.6666" y1="308.2758" x2="313.7513" y2="312.9446" stroke-width="1" stroke="#000000" />
<line x1="240.3003" y1="311.2027" x2="244.2156" y2="304.4227" stroke-width="1" stroke="#000000" />
<line x1="254.9099" y1="361.2027" x2="254.9099" y2="371.2027" stroke-width="1" stroke="#000000" />
<line x1="260.9099" y1="361.2027" x2="260.9099" y2="371.2027" stroke-width="1" stroke="#000000" />
<line x1="284.882" y1="337.1296" x2="292.9667" y2="332.4608" stroke-width="1" stroke="#000000" />
<line x1="233.948" y1="311.2027" x2="230.0327" y2="304.4227" stroke-width="1" stroke="#000000" />
<line x1="278.6945" y1="311.2027" x2="278.6945" y2="301.2027" stroke-width="1" stroke="#000000" />
<line x1="216.3453" y1="361.2027" x2="216.3453" y2="371.2027" stroke-width="1" stroke="#000000" />
<line x1="272.507" y1="313.1296" x2="264.4223" y2="308.4608" stroke-width="1" stroke="#000000" />
<line x1="305.6666" y1="356.2758" x2="313.7513" y2="360.9446" stroke-width="1" stroke="#000000" />
<line x1="284.882" y1="313.1303" x2="293.2916" y2="308.2751" stroke-width="1" stroke="#000000" />
<line x1="243.3128" y1="337.1296" x2="251.3975" y2="332.4608" stroke-width="1" stroke="#000000" />
<line x1="210.1578" y1="356.2758" x2="202.0731" y2="360.9446" stroke-width="1" stroke="#000000" />
<line x1="237.125" y1="335.2027" x2="237.1246" y2="325.2027" stroke-width="1" stroke="#000000" />
<line x1="213.1692" y1="347.2027" x2="209.2539" y2="340.4227" stroke-width="1" stroke="#000000" />
<line x1="305.6666" y1="349.1296" x2="313.7513" y2="344.4608" stroke-width="1" stroke="#000000" />
<line x1="264.0974" y1="349.1303" x2="272.507" y2="344.2751" stroke-width="1" stroke="#000000" />
<line x1="251.7224" y1="349.1303" x2="243.3128" y2="344.2751" stroke-width="1" stroke="#000000" />
<line x1="284.882" y1="344.2751" x2="293.2916" y2="349.1303" stroke-width="1" stroke="#000000" />
<line x1="230.9378" y1="344.2758" x2="222.5328" y2="349.1296" stroke-width="1" stroke="#000000" />
<line x1="305.6666" y1="301.1296" x2="313.7513" y2="296.4608" stroke-width="1" stroke="#000000" />
<line x1="299.4791" y1="361.2027" x2="299.4791" y2="371.2027" stroke-width="1" stroke="#000000" />
</g>
</svg>