<?xml version="1.0" encoding="UTF-8" ?><svg viewBox="198 216 145 83"
    version="1.1" xmlns="http://www.w3.org/2000/svg" >
<g fill="none" stroke-linecap="square" font-style="normal" >
<g font-family="Sans Serif" font-size="12px"><text x="275.2032" y="238.0227" fill="#000000" >H</text></g>
<g font-family="Sans Serif" font-size="12px"><text x="236.8549" y="291.5962" fill="#000000" >H</text></g>
<g font-family="Sans Serif" font-size="12px"><text x="204.0694" y="282.8147" fill="#000000" >H</text></g>
<g font-family="Sans Serif" font-size="12px"><text x="245.9566" y="258.8107" fill="#000000" >C</text></g>
<g font-family="Sans Serif" font-size="12px"><text x="319.989" y="250.0207" fill="#000000" >H</text></g>
<g font-family="Sans Serif" font-size="12px"><text x="295.989" y="291.5807" fill="#000000" >H</text></g>
<g font-family="Sans Serif" font-size="12px"><text x="287.5236" y="258.8027" fill="#000000" >C</text></g>
<g font-family="Sans Serif" font-size="12px"><text x="212.8509" y="250.0292" fill="#000000" >H</text></g>
<g font-family="Sans Serif" font-size="12px"><text x="299.2032" y="238.0227" fill="#000000" >H</text></g>
<g font-family="Sans Serif" font-size="12px"><text x="225.1732" y="270.8127" fill="#000000" >C</text></g>
<g font-family="Sans Serif" font-size="12px"><text x="308.3093" y="270.8007" fill="#000000" >C</text></g>
<g font-family="Sans Serif" font-size="12px"><text x="328.769" y="282.8007" fill="#000000" >H</text></g>
<g font-family="Sans Serif" font-size="12px"><text x="266.2089" y="270.8047" fill="#000000" >O</text></g>
<g font-family="Sans Serif" font-size="12px"><text x="245.4254" y="234.8147" fill="#000000" >O</text></g>
<line x1="315.673" y1="260.8007" x2="319.5883" y2="254.0207" stroke-width="1" stroke="#000000" />
<line x1="243.9566" y1="257.8839" x2="235.5482" y2="262.7396" stroke-width="1" stroke="#000000" />
<line x1="318.6843" y1="269.8739" x2="326.769" y2="274.5426" stroke-width="1" stroke="#000000" />
<line x1="294.8872" y1="248.8027" x2="298.8025" y2="242.0227" stroke-width="1" stroke="#000000" />
<line x1="288.5349" y1="248.8027" x2="284.6196" y2="242.0227" stroke-width="1" stroke="#000000" />
<line x1="256.3316" y1="257.8815" x2="264.2089" y2="262.4274" stroke-width="1" stroke="#000000" />
<line x1="223.1732" y1="269.8859" x2="215.085" y2="274.5566" stroke-width="1" stroke="#000000" />
<line x1="307.5883" y1="274.8007" x2="303.673" y2="281.5807" stroke-width="1" stroke="#000000" />
<line x1="226.1846" y1="260.8127" x2="222.2673" y2="254.0292" stroke-width="1" stroke="#000000" />
<line x1="234.2693" y1="274.8127" x2="238.1866" y2="281.5962" stroke-width="1" stroke="#000000" />
<line x1="297.8986" y1="257.8743" x2="306.3093" y2="262.7292" stroke-width="1" stroke="#000000" />
<line x1="253.1441" y1="248.8107" x2="253.1441" y2="238.8147" stroke-width="1" stroke="#000000" />
<line x1="247.1441" y1="248.8107" x2="247.1441" y2="238.8147" stroke-width="1" stroke="#000000" />
<line x1="277.6464" y1="262.4248" x2="285.5236" y2="257.8759" stroke-width="1" stroke="#000000" />
</g>
</svg>