<?xml version="1.0" encoding="UTF-8" ?><svg viewBox="179 152 165 116"
    version="1.1" xmlns="http://www.w3.org/2000/svg" >
<g fill="none" stroke-linecap="square" font-style="normal" >
<g font-family="Sans Serif" font-size="12px"><text x="245.019" y="173.9102" fill="#000000" >O</text></g>
<g font-family="Sans Serif" font-size="12px"><text x="209.2299" y="218.6902" fill="#000000" >H</text></g>
<g font-family="Sans Serif" font-size="12px"><text x="281.2299" y="260.2548" fill="#000000" >H</text></g>
<g font-family="Sans Serif" font-size="12px"><text x="329.2299" y="236.2548" fill="#000000" >H</text></g>
<g font-family="Sans Serif" font-size="12px"><text x="185.2299" y="194.6902" fill="#000000" >H</text></g>
<g font-family="Sans Serif" font-size="12px"><text x="305.2299" y="212.2548" fill="#000000" >H</text></g>
<g font-family="Sans Serif" font-size="12px"><text x="305.2299" y="260.2548" fill="#000000" >H</text></g>
<g font-family="Sans Serif" font-size="12px"><text x="269.5502" y="215.4702" fill="#000000" >C</text></g>
<g font-family="Sans Serif" font-size="12px"><text x="281.5502" y="236.2548" fill="#000000" >C</text></g>
<g font-family="Sans Serif" font-size="12px"><text x="245.019" y="215.4702" fill="#000000" >O</text></g>
<g font-family="Sans Serif" font-size="12px"><text x="305.5502" y="236.2548" fill="#000000" >C</text></g>
<g font-family="Sans Serif" font-size="12px"><text x="260.4499" y="248.2548" fill="#000000" >H</text></g>
<g font-family="Sans Serif" font-size="12px"><text x="269.2299" y="191.4702" fill="#000000" >H</text></g>
<g font-family="Sans Serif" font-size="12px"><text x="209.5502" y="194.6902" fill="#000000" >C</text></g>
<g font-family="Sans Serif" font-size="12px"><text x="290.0099" y="203.4702" fill="#000000" >H</text></g>
<g font-family="Sans Serif" font-size="12px"><text x="233.5502" y="194.6902" fill="#000000" >C</text></g>
<g font-family="Sans Serif" font-size="12px"><text x="209.2299" y="170.6902" fill="#000000" >H</text></g>
<line x1="213.7377" y1="184.6902" x2="213.7377" y2="174.6902" stroke-width="1" stroke="#000000" />
<line x1="279.5502" y1="235.3279" x2="271.4656" y2="239.9967" stroke-width="1" stroke="#000000" />
<line x1="243.5118" y1="186.1904" x2="247.4271" y2="179.4104" stroke-width="1" stroke="#000000" />
<line x1="238.3159" y1="183.1899" x2="242.2312" y2="176.4099" stroke-width="1" stroke="#000000" />
<line x1="213.7377" y1="198.6902" x2="213.7377" y2="208.6902" stroke-width="1" stroke="#000000" />
<line x1="285.7377" y1="240.2548" x2="285.7377" y2="250.2548" stroke-width="1" stroke="#000000" />
<line x1="315.9252" y1="231.7548" x2="327.2299" y2="231.7548" stroke-width="1" stroke="#000000" />
<line x1="207.5502" y1="190.1902" x2="196.2456" y2="190.1902" stroke-width="1" stroke="#000000" />
<line x1="309.7377" y1="226.2548" x2="309.7377" y2="216.2548" stroke-width="1" stroke="#000000" />
<line x1="256.4565" y1="210.9702" x2="267.5502" y2="210.9702" stroke-width="1" stroke="#000000" />
<line x1="309.7377" y1="240.2548" x2="309.7377" y2="250.2548" stroke-width="1" stroke="#000000" />
<line x1="278.6452" y1="219.4702" x2="282.5623" y2="226.2548" stroke-width="1" stroke="#000000" />
<line x1="242.6463" y1="198.6902" x2="246.5616" y2="205.4702" stroke-width="1" stroke="#000000" />
<line x1="291.9252" y1="231.7548" x2="303.5502" y2="231.7548" stroke-width="1" stroke="#000000" />
<line x1="273.7377" y1="205.4702" x2="273.7377" y2="195.4702" stroke-width="1" stroke="#000000" />
<line x1="231.5502" y1="190.1902" x2="219.9252" y2="190.1902" stroke-width="1" stroke="#000000" />
<line x1="279.9252" y1="207.397" x2="288.0099" y2="202.7283" stroke-width="1" stroke="#000000" />
</g>
</svg>